<svg id="e789cfc0-7f37-4d1d-a3b4-b4b6be01191b" data-name="Capa 2" xmlns="http://www.w3.org/2000/svg" width="471" height="357" viewBox="0 0 471 357"><defs><style>.\33 9fd4c1a-0b61-4fbc-ba11-349ec4b5b605{fill:none;}.cf62f7c5-6863-4df2-81b9-55c076d39645{fill:#fbcf42;}.\38 8e66aac-f995-460a-b049-f6b52d7b16f4{fill:#eb2224;}.\38 6410188-0275-4e1d-9cfe-90149f608479{fill:#5e5e5e;}.db0dadbd-39fc-4b3f-9441-1941b317f8c3{fill:#fff;}.\34 bced601-f439-4e6b-9eb5-a382da09785a{fill:#fff0d7;}</style></defs><title>mapa_castilla</title><path class="39fd4c1a-0b61-4fbc-ba11-349ec4b5b605" d="M110,2033H575V1682H110v351Zm292.81-94.65c-0.84.08-1.83,0.14-2-1.06-0.37-2.67,2.48-1.31,3.35-2.46C404.14,1936.27,405.29,1938.12,402.81,1938.35Zm65.26-164.06c0.81-1.31,1.79-1.64,3.49-1.87,6.35-.83,11,4.13,16.89,4.47,1.45,0.08,1.69,1.17,1.36,2.43a9,9,0,0,1-3.11,4.77c1.75,0.19,3.27-1.59,3.71.17s2.53,2.71,1.56,4.64c-0.68,1.36-2.12,1-3.31,1-1.46,0-2.93-.41-4.32-0.48-2.72-.13-4.59-2.46-8-1.53C472.45,1788.95,464.72,1779.74,468.07,1774.28ZM159,1967.94c1-1.72.88-3.82,2.65-5.16,1.07-.81.48-2.1,0-3.07-2-4.43-2.13-8.54,1.78-12.12,0.95-.87.83-1.94,0.34-3.06a5.94,5.94,0,0,1,.78-6.29c1.64-2.1,1.94-4.41,1.92-6.93,0-4.92,1-9.78,1.09-14.68a21.67,21.67,0,0,0-2.68-11.22,11.09,11.09,0,0,1-1.88-4.74c-0.18-2.93,1.44-5,4.34-4.66,5.51,0.55,8-2.75,10.68-6.79,3.68-5.65,7.69-10.92,15.44-11.75,5.65-.6,10.3-3.66,14.9-7.27,4.22-3.31,7.58-7.21,11.24-11,1.76-1.8,2-3.23.65-5.46-2.56-4.31-6.21-6.63-11.1-6.69-6.15-.08-12.17-8.06-9.14-13.44,2.51-4.45,1.36-8.38,1-12.64-0.15-1.59-1.17-1.27-2.1-1.31-3.36-.14-6.63-0.5-9.19-3.09-1.16-1.18-2.29-.09-3.41.22-4.93,1.37-9.73-.57-11.92-4.81a4,4,0,0,1-.75-2.43,8.16,8.16,0,0,0-1.63-7.42,2.31,2.31,0,0,1,.55-3.06c4.16-3.38,6.74-8.41,11.61-11a11.77,11.77,0,0,1,4.44-1.7c2.52-.22,3.84-2,5.27-3.7,1.64-1.92,1-3.75-.68-5.16-2.87-2.44-3.79-5.16-2.47-8.84,0.82-2.28-2.45-5.23-5.34-4.84a8.9,8.9,0,0,1-6.36-1.12c-2.21-1.43-3.45-3.59-2.47-6,1.31-3.18,1.22-6.79,3.17-9.73a4.88,4.88,0,0,0,.5-3.19c-0.19-4,1.61-6.15,5.67-6.67,1.21-.16,2.44-0.25,3.65-0.43,2.53-.39,4.1-1.83,4.18-4.38,0.11-3.35,2.26-5.64,3.87-8.2,1-1.54,2.59-1.62,4.29-1.22,5.73,1.33,11.65.93,17.42,1.92,2,0.34,3.39-.22,3.93-2.67s9.67-8.15,11.56-7c4.15,2.55,8.53,1.38,12.77,2a16.86,16.86,0,0,0,5.06,0c3.93-.6,7.68-0.3,9.75,4a9.5,9.5,0,0,0,1.94,2.22c4.16,4.31,4.16,4.31,8.5.31a11.76,11.76,0,0,1,13.94-1.48,4.72,4.72,0,0,0,4.17.74,9,9,0,0,1,4.74-.25,4.45,4.45,0,0,0,4.1-.93c2.28-1.83,4.54-1.84,7,.08,3.76,2.91,10.19,1.26,12.11-3,1.19-2.64,2.83-4.13,5.93-3.8a7.32,7.32,0,0,0,5-1h5.91a9.47,9.47,0,0,1,4.64,7.77c0.34,3.87,2.57,7.08,5,10.05,1.28,1.54,3.09,1.31,4.79,1.31,3.43,0,6.87-.19,10.28-0.51,4.82-.45,7.75,1.94,9.56,6a6.77,6.77,0,0,0,3.95,4,6.73,6.73,0,0,1,4.66,6.45c0.16,2.39.54,4.53,3.62,5.07,1.92,0.34,2.31,2.31,2.84,4,0.66,2.09,1.42,3.1,3.32.67,2.08-2.64,4.92-2.47,5.69.39,0.95,3.54,2.62,3,5.22,1.59-4.33-2.07-4.71-6.65-6.48-10.15-1.42-2.8.09-6.32,2.78-8.58,2.25-1.89,4.66-3.6,7-5.42a5.44,5.44,0,0,1,3.79-1.25,7,7,0,0,0,6-2.28c4.69-4.89,9.91-4.07,15-1a9.68,9.68,0,0,0,8.43,1,42.52,42.52,0,0,1,7.59-1.47c4.81-.61,8.31,1.58,9.92,6.13,0.94,2.66,2.34,5.17,1,8.14-0.61,1.38.49,1.92,1.58,2.4,4,1.73,5.22,5.42,6.21,9.1,0.78,2.9-1.09,5.28-4.6,6.58-1.36.5-2.78,0.68-3.66,2.17-1.8,3-1.7,3.87,1.28,5.8a11.4,11.4,0,0,1,2.61,2.56,9.18,9.18,0,0,0,5.68,3.72c3.49,0.62,7,7.06,6,10.48a3.81,3.81,0,0,1-3.57,2.75,8.44,8.44,0,0,1-5.71-1.1c-3.76-2.58-6.11-.17-7,3.83a21.7,21.7,0,0,0-.17,8,16.69,16.69,0,0,1-2.6,12.62,10.78,10.78,0,0,0-1.52,4.87,36.43,36.43,0,0,1-1.18,5.4,8.07,8.07,0,0,0,4.63,10.2c2.43,1,4.33,2.26,5.07,4.9,0.21,0.76.08,2,1.27,2a3.38,3.38,0,0,0,3.08-1.71c0.62-1.2,1-2.52,1.73-3.67a5.11,5.11,0,0,1,9.1,4.59c-0.56,1.4-2.17,3.12.42,3.79,1.83,0.47,4.16,2.07,5.64-1.16,2.86-6.22,8.41-8.6,14.77-9.45,3.27-.44,6.25.45,8.05,3.36,1,1.65,2,2.19,3.85,1.67a6.28,6.28,0,0,1,2.93,0c3.92,0.77,5.6,3.41,4.64,7.25-1.32,5.24.28,8.46,5.06,10.75a6.31,6.31,0,0,0,5.62,0c4.58-1.9,6.37-.58,6.1,4.45a9.08,9.08,0,0,0,.81,3.54c1,2.93,1.83,5.85,1,9-0.35,1.33.21,2.64,0.61,4,1.56,5-.56,9.3-5.46,11.19a32.51,32.51,0,0,0-4.26,2.16c-1.59.9-2.47,1.75-1.26,3.7,0.89,1.44,1,3.51-.46,4.41-2.5,1.59-2,3.7-1.68,5.83,0.48,3.12-.52,5.21-3.55,6.41-4.44,1.76-5.85,1.59-8.48-1.48-0.82,1.52-1.28,3.21-2.49,4.49a4,4,0,0,0-.9,3.78,10.32,10.32,0,0,1,.18,4.4,4.41,4.41,0,0,0,1.9,4.82c3.72,2.81,4,6.44,2.58,10.55-1,2.94-3.16,4-5.68,2.21-3.33-2.43-6.54-1.54-9.75-.37-8,2.91-14.81.75-19.37-6.37-0.81-1.26-1.56-2.41-3.3-2.62-3.67-.44-4.65-3.33-5.13-6.33-0.56-3.5-3.06-6.14-6.38-5.81a9.38,9.38,0,0,1-8.68-3.86c-1.41-1.74-2.76-2.28-5.07-1.55-5.05,1.61-10.17,1.86-15-1a2.68,2.68,0,0,0-3.37.24,8.62,8.62,0,0,1-5.9,1.79c-4-.34-7.17,1.54-10.1,3.7a17.38,17.38,0,0,1-8.46,3.34,9.5,9.5,0,0,0-6.17,3,11.36,11.36,0,0,1-3.79,2.91c-3.6,1.53-5.08,4.3-5.43,8.06-0.29,3.09-1,3.42-3.4,2.11,0-.06-0.05-0.1-0.08-0.16a1.22,1.22,0,0,1-1.44-.22l-0.3.17c-4.11.67-6.65,3-7.24,7.13a8.45,8.45,0,0,1-7,7.58c-5.68,1.26-8.46,5.58-10.9,10.07-1.48,2.72-3.14,4.63-6.24,5-3.64.47-5,3.18-5.89,6.16-0.62,2-.94,4-1.58,6-1,3.19-2.79,5.09-6.17,5.34a3.85,3.85,0,0,0-3.08,2.3c-1.39,2.4-3.11,4.33-6.07,4.91-2,.39-2.79,2.16-3.44,4-1.37,3.82-2.7,4.66-7.23,4.79-3.82.11-5.89-1.13-7.3-4.35s-1.92-3.22-4.19-.76a15.1,15.1,0,0,1-4.12,3c-1,.52-2.3,1-2.66,2.05-1.06,3-3.52,3.69-6.16,4.69h-19.2a8.46,8.46,0,0,0-4.55-1.31c-4.33-.36-6.35-2.58-6.58-6.93-0.11-2.08.85-4.8-.4-6.15-1.83-2-3.35,1.17-5.26,1.54-4.84.95-8.39-1.09-11.47-4.33a22.41,22.41,0,0,1-3-3.75,4.9,4.9,0,0,0-4.51-2.62c-2.23,0-4.21-.89-4.65-3.36-0.25-1.4-.81-1-1.7-0.8-1.45.4-2.62,1.35-4,1.9-3.89,1.59-7.24-.13-8.94-3.9a33.71,33.71,0,0,0-6.67-10.21,11.12,11.12,0,0,1-2.62-3.07c-1.36-3.07-3.57-3.15-6-1.66-5.32,3.29-11.1,5.69-16.56,8.7a6,6,0,0,0-1.89,1.72c-3.43,4.6-8.64,4.68-13.6,5.1-1.5.13-3.22-.33-4.82-0.34-3,0-5.8-1.08-6.8-4.16v-4.43Z" transform="translate(-107 -1679)"/><path class="cf62f7c5-6863-4df2-81b9-55c076d39645" d="M107,1679v357H578V1679H107Zm468,354H110V1682H575v351Z" transform="translate(-107 -1679)"/><path class="cf62f7c5-6863-4df2-81b9-55c076d39645" d="M302.08,1782.7c-0.59,4.24-1,7.3-1.1,9.3h2C302.67,1790,302.38,1786.39,302.08,1782.7Z" transform="translate(-107 -1679)"/><path class="cf62f7c5-6863-4df2-81b9-55c076d39645" d="M378,1782.7c-0.59,4.24-1,7.3-1.1,9.3h2C378.54,1790,378.25,1786.39,378,1782.7Z" transform="translate(-107 -1679)"/><path class="cf62f7c5-6863-4df2-81b9-55c076d39645" d="M333.24,1940h1.2c-0.18-1-.35-3.4-0.53-5.64C333.55,1936.93,333.33,1939,333.24,1940Z" transform="translate(-107 -1679)"/><path class="cf62f7c5-6863-4df2-81b9-55c076d39645" d="M266.67,1940h1.2c-0.18-1-.35-3.4-0.53-5.64C267,1936.93,266.76,1939,266.67,1940Z" transform="translate(-107 -1679)"/><path class="cf62f7c5-6863-4df2-81b9-55c076d39645" d="M283,1940h1.2c-0.18-1-.35-3.4-0.53-5.64C283.36,1936.93,283.14,1939,283,1940Z" transform="translate(-107 -1679)"/><path class="cf62f7c5-6863-4df2-81b9-55c076d39645" d="M304.71,1940h1.2c-0.18-1-.35-3.4-0.53-5.64C305,1936.93,304.8,1939,304.71,1940Z" transform="translate(-107 -1679)"/><path class="cf62f7c5-6863-4df2-81b9-55c076d39645" d="M335,1839.71V1850a12.24,12.24,0,0,0,.09,2.38,0.64,0.64,0,0,0,.7.45,0.9,0.9,0,0,0,.9-0.52,8.38,8.38,0,0,0,.32-2.47v-10.17a5.27,5.27,0,0,0-.34-2,0.8,0.8,0,0,0-.79-0.43,0.74,0.74,0,0,0-.66.35A5.16,5.16,0,0,0,335,1839.71Z" transform="translate(-107 -1679)"/><path class="cf62f7c5-6863-4df2-81b9-55c076d39645" d="M165.8,1976.54c1.6,0,3.28.47,4.78,0.34,5-.43,10.19-0.5,13.63-5.1a6,6,0,0,1,1.9-1.72c5.46-3,11.24-5.41,16.56-8.7,2.41-1.49,4.63-1.41,6,1.66a11.12,11.12,0,0,0,2.62,3.07,33.72,33.72,0,0,1,6.67,10.21c1.7,3.77,5.06,5.49,8.94,3.9,1.36-.56,2.53-1.5,4-1.9,0.89-.25,1.45-0.6,1.7.8,0.44,2.47,2.41,3.35,4.65,3.36a4.9,4.9,0,0,1,4.51,2.61,22.37,22.37,0,0,0,3,3.74c3.08,3.24,6.63,5.27,11.47,4.32,1.91-.37,3.43-3.54,5.26-1.57,1.25,1.35.29,4,.4,6.11,0.23,4.35,2.25,6.67,6.58,7a8.46,8.46,0,0,1,4.55,1.31h6.65c1.52-3,4.74-2.37,6-5,1.8,1.63-.05,3,1.44,5h5.17c2.64-1,5.11-1.7,6.16-4.69,0.36-1,1.69-1.44,2.66-2a15.28,15.28,0,0,0,4.12-3.09c2.27-2.47,2.84-2.35,4.19.73s3.48,4.45,7.3,4.34c4.53-.13,5.86-1,7.23-4.8,0.65-1.81,1.42-3.58,3.44-4,3-.58,4.68-2.52,6.07-4.91a3.85,3.85,0,0,1,3.08-2.3c3.38-.25,5.16-2.15,6.17-5.34,0.63-2,1-4.05,1.58-6,0.94-3,2.26-5.69,5.89-6.16,3.1-.4,4.76-2.3,6.24-5,2.44-4.49,5.22-8.81,10.9-10.07a8.45,8.45,0,0,0,7-7.58c0.59-4.16,3.13-6.46,7.24-7.13l0.3-.17a2.76,2.76,0,0,1-.27-0.25,2.59,2.59,0,0,0,0-.36c-0.14-1.63.52-3.31,2.13-2.89,1.77,0.46.53,2.1,0.15,3.25a2.24,2.24,0,0,1-.59.47c0,0.05.05,0.09,0.08,0.16,2.37,1.31,3.11,1,3.4-2.11,0.35-3.76,1.83-6.53,5.43-8.06a11.36,11.36,0,0,0,3.79-2.91,9.5,9.5,0,0,1,6.17-3,17.38,17.38,0,0,0,8.46-3.34c2.94-2.16,6.08-4,10.1-3.7a8.62,8.62,0,0,0,5.9-1.79,2.68,2.68,0,0,1,3.37-.24c4.8,2.89,9.92,2.64,15,1,2.31-.74,3.66-0.19,5.07,1.55a9.38,9.38,0,0,0,8.68,3.86c3.33-.33,5.83,2.31,6.38,5.81,0.48,3,1.46,5.89,5.13,6.33,1.74,0.21,2.5,1.36,3.3,2.62,4.57,7.12,11.38,9.27,19.38,6.37,3.21-1.16,6.42-2.05,9.75.37,2.52,1.84,4.65.73,5.68-2.21,1.45-4.11,1.14-7.74-2.58-10.55a4.41,4.41,0,0,1-1.9-4.82,10.32,10.32,0,0,0-.18-4.4,4,4,0,0,1,.9-3.78c1.21-1.27,1.67-3,2.49-4.49,2.63,3.07,4,3.23,8.48,1.48,3-1.2,4-3.29,3.55-6.41-0.33-2.13-.82-4.24,1.68-5.83,1.42-.9,1.34-3,0.46-4.41-1.21-1.95-.33-2.8,1.26-3.7a32.51,32.51,0,0,1,4.26-2.16c4.89-1.89,7-6.14,5.46-11.19-0.41-1.31-1-2.62-.61-4,0.84-3.16,0-6.08-1-9a9.08,9.08,0,0,1-.81-3.54c0.27-5-1.51-6.35-6.1-4.45a6.31,6.31,0,0,1-5.62,0c-4.79-2.29-6.38-5.51-5.06-10.75,1-3.84-.71-6.48-4.64-7.25a6.28,6.28,0,0,0-2.93,0c-1.8.52-2.82,0-3.85-1.67-1.8-2.9-4.78-3.79-8.05-3.36-6.36.85-11.91,3.22-14.77,9.45-1.48,3.23-3.82,1.63-5.64,1.16-2.59-.67-1-2.39-0.42-3.79a5.11,5.11,0,0,0-9.1-4.59c-0.73,1.15-1.11,2.47-1.73,3.67a3.38,3.38,0,0,1-3.08,1.71c-1.18,0-1.05-1.19-1.27-2-0.74-2.64-2.65-3.92-5.07-4.9a8.07,8.07,0,0,1-4.63-10.2,36.43,36.43,0,0,0,1.18-5.4,10.78,10.78,0,0,1,1.52-4.87,16.69,16.69,0,0,0,2.6-12.62,21.7,21.7,0,0,1,.17-8c0.85-4,3.21-6.41,7-3.83a8.44,8.44,0,0,0,5.71,1.1,3.81,3.81,0,0,0,3.57-2.75c1-3.42-2.49-9.86-6-10.48a9.18,9.18,0,0,1-5.68-3.72,11.4,11.4,0,0,0-2.61-2.56c-3-1.93-3.08-2.76-1.28-5.8,0.89-1.5,2.3-1.67,3.66-2.17,3.51-1.3,5.38-3.69,4.6-6.58-1-3.67-2.26-7.37-6.21-9.1-1.09-.48-2.19-1-1.58-2.4,1.32-3-.09-5.48-1-8.14-1.61-4.55-5.1-6.74-9.92-6.13a42.52,42.52,0,0,0-7.59,1.47,9.68,9.68,0,0,1-8.43-1c-5.11-3-10.33-3.87-15,1a7,7,0,0,1-6,2.28,5.44,5.44,0,0,0-3.79,1.25c-2.32,1.81-4.73,3.52-7,5.42-2.69,2.26-4.2,5.78-2.78,8.58,1.78,3.5,2.15,8.08,6.48,10.15-2.6,1.42-4.27,2-5.22-1.59-0.77-2.85-3.61-3-5.69-.39-1.91,2.42-2.66,1.42-3.32-.67-0.53-1.67-.92-3.65-2.84-4-3.08-.54-3.47-2.69-3.62-5.07a6.73,6.73,0,0,0-4.66-6.45,6.77,6.77,0,0,1-3.95-4c-1.81-4-4.74-6.41-9.56-6-3.41.32-6.85,0.5-10.28,0.5-1.69,0-3.51.22-4.79-1.33-2.46-3-4.69-6.15-5-10a9.47,9.47,0,0,0-4.64-7.77h-5.91a7.32,7.32,0,0,1-5,1c-3.1-.33-4.74,1.2-5.93,3.84-1.92,4.26-8.35,5.89-12.11,3-2.48-1.92-4.74-1.92-7-.09a4.45,4.45,0,0,1-4.1.93,9,9,0,0,0-4.74.24,4.72,4.72,0,0,1-4.17-.74,11.76,11.76,0,0,0-13.94,1.48c-4.34,4-4.34,4-8.5-.31a9.51,9.51,0,0,1-1.94-2.22c-2.07-4.26-5.81-4.56-9.75-4a16.86,16.86,0,0,1-5.06,0c-4.25-.6-8.63.58-12.77-2-1.89-1.17-11,4.56-11.56,7s-1.9,3-3.93,2.67c-5.77-1-11.7-.58-17.42-1.92-1.7-.4-3.33-0.32-4.29,1.22-1.61,2.56-3.77,4.86-3.87,8.2-0.08,2.55-1.64,4-4.18,4.38-1.21.19-2.44,0.28-3.65,0.43-4.06.52-5.86,2.65-5.67,6.67a4.88,4.88,0,0,1-.5,3.19c-1.95,2.93-1.85,6.54-3.17,9.73-1,2.39.26,4.55,2.47,6a8.9,8.9,0,0,0,6.36,1.12c2.89-.39,6.16,2.56,5.34,4.84-1.33,3.68-.41,6.41,2.47,8.84,1.67,1.41,2.32,3.24.68,5.16-1.42,1.67-2.75,3.47-5.27,3.7a11.77,11.77,0,0,0-4.44,1.7c-4.88,2.63-7.45,7.66-11.61,11a2.31,2.31,0,0,0-.55,3.06,8.16,8.16,0,0,1,1.63,7.42,4,4,0,0,0,.75,2.43c2.19,4.24,7,6.18,11.92,4.81,1.12-.31,2.25-1.39,3.41-0.22,2.56,2.59,5.83,2.95,9.19,3.09,0.93,0,2-.28,2.1,1.31,0.4,4.26,1.54,8.19-1,12.64-3,5.38,3,13.37,9.14,13.44,4.89,0.06,8.54,2.38,11.1,6.69,1.32,2.23,1.11,3.65-.65,5.46-3.65,3.75-7,7.65-11.24,11-4.6,3.61-9.25,6.67-14.9,7.27-7.75.82-11.76,6.1-15.44,11.75-2.63,4-5.17,7.35-10.68,6.79-2.9-.29-4.52,1.74-4.34,4.66a11.09,11.09,0,0,0,1.88,4.74,21.67,21.67,0,0,1,2.68,11.22c-0.11,4.9-1.12,9.76-1.09,14.68,0,2.52-.28,4.82-1.92,6.93a5.94,5.94,0,0,0-.77,6.29c0.49,1.12.62,2.19-.33,3.06-3.91,3.58-3.74,7.69-1.75,12.12,0.44,1,1,2.26-.09,3.07-1.78,1.34-1.65,3.43-2.65,5.16v4.43C160,1975.45,162.77,1976.51,165.8,1976.54Zm276.81-214.78c1-1.1,1.74-2.35,2.76-3.39s2.16-.37,2.56.68,3,1.51.93,3.37c-1.49,1.34-4.63-.6-4.85,3.15a9,9,0,0,1-1.16-1.48C442.54,1763.36,441.82,1762.67,442.61,1761.76ZM373.56,1778h8.32l3.29,22h-5.88l-0.31-4h-2.06l-0.35,4h-6ZM261.83,1943.55a2.63,2.63,0,0,1-1.3,1.14,5.13,5.13,0,0,1-2.24.46,5,5,0,0,1-2.39-.53,3,3,0,0,1-1.44-1.35,6.48,6.48,0,0,1-.45-2.33V1940h4v1.69a5.27,5.27,0,0,0-.1,1,0.35,0.35,0,0,0,.37.22,0.48,0.48,0,0,0,.46-0.27,1.6,1.6,0,0,0,.14-0.81,2.5,2.5,0,0,0-.34-1.55,10.53,10.53,0,0,0-1.64-1.22,16.24,16.24,0,0,1-1.73-1.25,2.93,2.93,0,0,1-.7-1.08,4.74,4.74,0,0,1-.28-1.76,4.88,4.88,0,0,1,.39-2.26,2.65,2.65,0,0,1,1.27-1.12,5.08,5.08,0,0,1,2.12-.4,5.55,5.55,0,0,1,2.32.44,2.6,2.6,0,0,1,1.33,1.11A5.61,5.61,0,0,1,262,1935v1h-3v-1.5a1.51,1.51,0,0,0-.31-0.89,0.65,0.65,0,0,0-.51-0.19,0.61,0.61,0,0,0-.52.26,1.48,1.48,0,0,0-.18.78,2.23,2.23,0,0,0,.17,1,2.6,2.6,0,0,0,1,.82,10,10,0,0,1,2.94,2.27,5.21,5.21,0,0,1,.6,2.86A5,5,0,0,1,261.83,1943.55Zm6.33,1.45-0.19-3h-1.25l-0.21,3h-3.61l1.78-14h5.05l2,14h-3.57Zm9.85,0h-5v-14h3v11h2v3Zm6.53,0-0.19-3h-1.25l-0.21,3h-3.61l1.78-14h5.05l2,14h-3.57Zm21.67,0-0.19-3h-1.25l-0.21,3h-3.61l1.78-14h5.05l2,14h-3.57Zm8.81-93v4h-9v-22h5v18h4Zm4,93h-3.48l-1.52-6.24V1945h-3v-14h2.71l2.29,6.48V1931h3v14Zm10-8h-4v-2.05a4.75,4.75,0,0,0-.07-1.27,0.45,0.45,0,0,0-.47-0.25,0.39,0.39,0,0,0-.44.31,6.65,6.65,0,0,0,0,1.33v6.24a5.92,5.92,0,0,0,0,1.28,0.43,0.43,0,0,0,.47.3,0.41,0.41,0,0,0,.45-0.3,6,6,0,0,0,.06-1.41V1939h4v1a8.83,8.83,0,0,1-.51,3,3.29,3.29,0,0,1-1.41,1.53,4.65,4.65,0,0,1-2.54.66,5.27,5.27,0,0,1-2.56-.56,3,3,0,0,1-1.49-1.54,9.14,9.14,0,0,1-.49-3v-3.93a12.76,12.76,0,0,1,.26-2.18,3.23,3.23,0,0,1,.67-1.4,3.44,3.44,0,0,1,1.41-1.06,5,5,0,0,1,2-.39,5,5,0,0,1,2.56.6,3.38,3.38,0,0,1,1.54,1.49A7.87,7.87,0,0,1,329,1936v1Zm5.72,8-0.19-3h-1.25l-0.21,3h-3.61l1.78-14h5.05l2,14h-3.57ZM360,1778h6v18h3v4h-9v-22Zm-2,78h-4.93l-3.07-9.91V1856h-5v-22h5.08l2.92,10v-10h5v22Zm-9-78h5v18h4v4h-9v-22Zm-9,0h6v22h-6v-22Zm1.23,57.88a5,5,0,0,1,.82,2.53c0.11,0.91,0,2.51,0,4.79V1847c0,2.22.16,3.8,0.05,4.72A5,5,0,0,1,339,1856a8,8,0,0,1-3.26.62,8.27,8.27,0,0,1-3.18-.58,5.23,5.23,0,0,1-2.27-1.74,5.32,5.32,0,0,1-1.07-2.53A43.06,43.06,0,0,1,329,1847v-3.79a44.23,44.23,0,0,1,.21-4.72,5.37,5.37,0,0,1,3.26-4.3,8.17,8.17,0,0,1,3.29-.62,8.35,8.35,0,0,1,3.2.58A5.26,5.26,0,0,1,341.23,1835.88ZM325,1778h13v4h-4v18h-5v-18h-4v-4Zm5.35,28a78.44,78.44,0,0,1,1.4,8.72,84.85,84.85,0,0,1,1.6-8.72h5.29L334,1820.14V1828h-5v-7.86L325.07,1806h5.29ZM327,1834v4h-4v5h3v4h-3v5h4v4H317v-22h10Zm-15.85-53.94a4.37,4.37,0,0,1,2.1-1.84,8.36,8.36,0,0,1,3.5-.66,9.11,9.11,0,0,1,3.82.72,3.78,3.78,0,0,1,2,1.83,10.07,10.07,0,0,1,.42,3.74V1785h-5v-1.92a2.91,2.91,0,0,0-.29-1.46,0.83,0.83,0,0,0-.73-0.31,0.91,0.91,0,0,0-.81.42,2.45,2.45,0,0,0-.28,1.29,3.65,3.65,0,0,0,.29,1.67,4.33,4.33,0,0,0,1.62,1.35q3.84,2.28,4.84,3.74a8.59,8.59,0,0,1,1,4.72,8.27,8.27,0,0,1-.55,3.49,4.34,4.34,0,0,1-2.14,1.88,8.47,8.47,0,0,1-3.69.76,8.26,8.26,0,0,1-3.94-.87,4,4,0,0,1-2-2.23,12.13,12.13,0,0,1-.35-3.84V1792h5v2.92a3.49,3.49,0,0,0,.24,1.6,0.88,0.88,0,0,0,.81.36,0.94,0.94,0,0,0,.86-0.45,2.58,2.58,0,0,0,.28-1.34,4.15,4.15,0,0,0-.53-2.56,16.94,16.94,0,0,0-2.69-2,26.52,26.52,0,0,1-2.84-2.06,4.83,4.83,0,0,1-1.16-1.78,7.82,7.82,0,0,1-.46-2.9A8,8,0,0,1,311.15,1780.06ZM297.69,1778H306l3.29,22h-5.88l-0.31-4h-2.06l-0.35,4h-6Zm-4.06,153c0.13,1,.27,2,0.42,3.07l0.5,3.31,0.8-6.38H300v14h-3.16v-9.07l-1.22,9.07h-2.17l-1.28-8.87V1945H289v-14h4.64ZM280,1785.83c0-1.59-.1-2.79,0-3.59a4.88,4.88,0,0,1,.9-2.3,5.32,5.32,0,0,1,2.22-1.74,9.16,9.16,0,0,1,7.48.35,4.4,4.4,0,0,1,2,2.45,15.79,15.79,0,0,1,.37,4.57V1788h-5v-4.19a5,5,0,0,0-.41-2.09,1,1,0,0,0-.93-0.42,1.31,1.31,0,0,0-1.18.51A5.45,5.45,0,0,0,285,1784v10.28a5.39,5.39,0,0,0,.42,2.11,1,1,0,0,0,1,.49,1.27,1.27,0,0,0,1.13-.49,5.66,5.66,0,0,0,.48-2.32V1791h5v1.14a18.53,18.53,0,0,1-.34,4.88,4.81,4.81,0,0,1-2.07,2.52,7.22,7.22,0,0,1-4.06,1.08,8.41,8.41,0,0,1-4.15-.92,4.17,4.17,0,0,1-2-2.54,17.83,17.83,0,0,1-.37-4.87v-6.47ZM257,1863c51,0,0,58,0,58S206,1863,257,1863Z" transform="translate(-107 -1679)"/><path class="cf62f7c5-6863-4df2-81b9-55c076d39645" d="M279.59,2006H287C284.51,2003,282.05,2005,279.59,2006Z" transform="translate(-107 -1679)"/><path class="cf62f7c5-6863-4df2-81b9-55c076d39645" d="M285.54,2000.6c-1.21,2.64-4.43,2.69-6,5,2.46-.92,4.92-2.57,7.39,0C285.49,2004.32,287.34,2002.23,285.54,2000.6Z" transform="translate(-107 -1679)"/><path class="cf62f7c5-6863-4df2-81b9-55c076d39645" d="M444,1765.56c0.22-3.75,3.36-1.81,4.85-3.15,2.06-1.86-.53-2.32-0.93-3.37s-1.47-1.79-2.56-.68-1.8,2.29-2.76,3.39c-0.79.91-.07,1.6,0.24,2.33A9,9,0,0,0,444,1765.56Z" transform="translate(-107 -1679)"/><path class="cf62f7c5-6863-4df2-81b9-55c076d39645" d="M381.74,1937.85a1.22,1.22,0,0,0,1.44.22C382.8,1937.25,382.27,1937.53,381.74,1937.85Z" transform="translate(-107 -1679)"/><path class="cf62f7c5-6863-4df2-81b9-55c076d39645" d="M383.63,1934.35c-1.61-.42-2.27,1.26-2.13,2.89a2.59,2.59,0,0,1,0,.36,2.76,2.76,0,0,0,.27.25c0.53-.31,1.06-0.6,1.44.22a2.24,2.24,0,0,0,.59-0.47C384.16,1936.45,385.4,1934.8,383.63,1934.35Z" transform="translate(-107 -1679)"/><path class="cf62f7c5-6863-4df2-81b9-55c076d39645" d="M476.29,1787.92c3.46-.93,5.33,1.4,8,1.53,1.39,0.06,2.86.5,4.32,0.48,1.19,0,2.63.34,3.31-1,1-1.93-1.17-3-1.56-4.64s-2,0-3.71-.17a9,9,0,0,0,3.11-4.77c0.33-1.26.09-2.35-1.36-2.43-5.92-.34-10.54-5.3-16.89-4.47-1.7.22-2.69,0.55-3.49,1.87C464.72,1779.74,472.45,1788.95,476.29,1787.92Z" transform="translate(-107 -1679)"/><path class="cf62f7c5-6863-4df2-81b9-55c076d39645" d="M400.82,1937.29c0.17,1.2,1.16,1.13,2,1.06,2.48-.22,1.33-2.08,1.36-3.52C403.29,1936,400.45,1934.62,400.82,1937.29Z" transform="translate(-107 -1679)"/><path class="88e66aac-f995-460a-b049-f6b52d7b16f4" d="M257,1863c-51,0,0,58,0,58S308,1863,257,1863Zm-8,21a8,8,0,1,1,8,8A8,8,0,0,1,249,1884Z" transform="translate(-107 -1679)"/><path class="86410188-0275-4e1d-9cfe-90149f608479" d="M258.62,1936.3a2.63,2.63,0,0,1-1-.82,2.21,2.21,0,0,1-.18-1,1.5,1.5,0,0,1,.16-0.78,0.53,0.53,0,0,1,.48-0.26,0.88,0.88,0,0,1,.6.19,1.51,1.51,0,0,1,.31.89v1.5h3v-1a5.61,5.61,0,0,0-.37-2.27,2.51,2.51,0,0,0-1.3-1.11,5.62,5.62,0,0,0-2.34-.44,5.12,5.12,0,0,0-2.13.4,2.66,2.66,0,0,0-1.28,1.12,4.88,4.88,0,0,0-.4,2.26,4.75,4.75,0,0,0,.28,1.76,2.92,2.92,0,0,0,.7,1.08,16.06,16.06,0,0,0,1.73,1.25,10.34,10.34,0,0,1,1.63,1.22,2.52,2.52,0,0,1,.32,1.55,1.57,1.57,0,0,1-.17.81,0.57,0.57,0,0,1-.52.27c-0.23,0-.16-0.07-0.25-0.22a5.27,5.27,0,0,1,.1-1V1940h-4v0.94a6.48,6.48,0,0,0,.45,2.33,2.77,2.77,0,0,0,1.37,1.35,5.15,5.15,0,0,0,2.43.53,5.21,5.21,0,0,0,2.26-.46,2.65,2.65,0,0,0,1.31-1.14,5,5,0,0,0,.34-2.12,5.21,5.21,0,0,0-.6-2.86A10,10,0,0,0,258.62,1936.3Z" transform="translate(-107 -1679)"/><path class="86410188-0275-4e1d-9cfe-90149f608479" d="M264.67,1931l-1.78,14h3.61l0.21-3H268l0.19,3h3.57l-2-14h-5.05Zm2,9c0.09-1,.32-3.07.67-5.64,0.18,2.24.36,4.64,0.53,5.64h-1.2Z" transform="translate(-107 -1679)"/><polygon class="86410188-0275-4e1d-9cfe-90149f608479" points="169 252 166 252 166 266 171 266 171 263 169 263 169 252"/><path class="86410188-0275-4e1d-9cfe-90149f608479" d="M281,1931l-1.78,14h3.61l0.21-3h1.25l0.19,3h3.57l-2-14H281Zm2,9c0.09-1,.32-3.07.67-5.64,0.18,2.24.36,4.64,0.53,5.64H283Z" transform="translate(-107 -1679)"/><path class="86410188-0275-4e1d-9cfe-90149f608479" d="M289,1945h3.17v-8.87l1.28,8.87h2.17l1.22-9.07V1945H300v-14h-4.65l-0.8,6.49-0.5-3.53c-0.14-1.1-.28-2-0.42-3H289v14Z" transform="translate(-107 -1679)"/><path class="86410188-0275-4e1d-9cfe-90149f608479" d="M302.72,1931l-1.78,14h3.61l0.21-3H306l0.19,3h3.57l-2-14h-5.05Zm2,9c0.09-1,.32-3.07.67-5.64,0.18,2.24.36,4.64,0.53,5.64h-1.2Z" transform="translate(-107 -1679)"/><polygon class="86410188-0275-4e1d-9cfe-90149f608479" points="209 258.48 206.71 252 204 252 204 266 207 266 207 259.76 208.52 266 212 266 212 252 209 252 209 258.48"/><path class="86410188-0275-4e1d-9cfe-90149f608479" d="M326.94,1931.75a5.61,5.61,0,0,0-4.56-.21,3.31,3.31,0,0,0-1.37,1.06,3.43,3.43,0,0,0-.75,1.4,12.76,12.76,0,0,0-.26,2.18v3.93a9.2,9.2,0,0,0,.48,3,2.85,2.85,0,0,0,1.4,1.54,5.32,5.32,0,0,0,2.57.56,4.53,4.53,0,0,0,2.51-.66,3.61,3.61,0,0,0,1.53-1.53,8.78,8.78,0,0,0,.52-3v-1h-4v2.17a5.51,5.51,0,0,1-.08,1.41,0.47,0.47,0,0,1-.49.3,0.37,0.37,0,0,1-.42-0.3,6.17,6.17,0,0,1,0-1.28v-6.24a6.38,6.38,0,0,1,0-1.33,0.45,0.45,0,0,1,.5-0.31,0.39,0.39,0,0,1,.43.25,5.21,5.21,0,0,1,0,1.27V1937h4v-1a7.88,7.88,0,0,0-.53-2.77A3.37,3.37,0,0,0,326.94,1931.75Z" transform="translate(-107 -1679)"/><path class="86410188-0275-4e1d-9cfe-90149f608479" d="M331.24,1931l-1.78,14h3.61l0.21-3h1.25l0.19,3h3.57l-2-14h-5.05Zm2,9c0.09-1,.32-3.07.67-5.64,0.18,2.24.36,4.64,0.53,5.64h-1.2Z" transform="translate(-107 -1679)"/><circle class="db0dadbd-39fc-4b3f-9441-1941b317f8c3" cx="150" cy="205" r="8"/><path class="4bced601-f439-4e6b-9eb5-a382da09785a" d="M282.4,1799.7a8.49,8.49,0,0,0,4.17.92,7.34,7.34,0,0,0,4.09-1.08,4.64,4.64,0,0,0,2-2.52,18.53,18.53,0,0,0,.34-4.87V1791h-5v3.06a6,6,0,0,1-.43,2.32,1,1,0,0,1-1,.49,1.28,1.28,0,0,1-1.14-.49,5.12,5.12,0,0,1-.47-2.11V1784a5.74,5.74,0,0,1,.42-2.19,1,1,0,0,1,1-.51,1.32,1.32,0,0,1,1.1.42,4.73,4.73,0,0,1,.47,2.09V1788h5v-2.44a15.75,15.75,0,0,0-.37-4.57,4.56,4.56,0,0,0-2.1-2.45,8,8,0,0,0-4.16-1,8.06,8.06,0,0,0-3.3.64,5.42,5.42,0,0,0-2.25,1.74,4.74,4.74,0,0,0-.82,2.3c-0.11.8,0,2,0,3.59v6.47a17.75,17.75,0,0,0,.38,4.87A4.19,4.19,0,0,0,282.4,1799.7Z" transform="translate(-107 -1679)"/><path class="4bced601-f439-4e6b-9eb5-a382da09785a" d="M301.05,1796h2.06l0.31,4h5.88L306,1778h-8.32l-2.94,22h6Zm1-13.3c0.29,3.69.58,7.3,0.88,9.3h-2C301.13,1790,301.5,1786.94,302.08,1782.7Z" transform="translate(-107 -1679)"/><path class="4bced601-f439-4e6b-9eb5-a382da09785a" d="M312.12,1788.45a26.53,26.53,0,0,0,2.84,2.06,17,17,0,0,1,2.69,2,4.15,4.15,0,0,1,.53,2.56,2.58,2.58,0,0,1-.28,1.34,0.94,0.94,0,0,1-.85.45,0.9,0.9,0,0,1-.81-0.36,3.49,3.49,0,0,1-.24-1.6V1792h-5v1.67a12.13,12.13,0,0,0,.35,3.84,4.12,4.12,0,0,0,2.06,2.23,8.09,8.09,0,0,0,3.9.88,8.37,8.37,0,0,0,3.67-.76,4.31,4.31,0,0,0,2.13-1.88,8.29,8.29,0,0,0,.55-3.49,8.58,8.58,0,0,0-1-4.72q-1-1.46-4.84-3.74a4.34,4.34,0,0,1-1.63-1.35,3.64,3.64,0,0,1-.3-1.67,2.46,2.46,0,0,1,.27-1.29,0.87,0.87,0,0,1,.79-0.42,0.92,0.92,0,0,1,.77.31,2.91,2.91,0,0,1,.29,1.46V1785h5v-1.16a10.07,10.07,0,0,0-.42-3.74,3.89,3.89,0,0,0-2-1.83,9,9,0,0,0-3.8-.72,8.31,8.31,0,0,0-3.49.66,4.36,4.36,0,0,0-2.09,1.84,8.05,8.05,0,0,0-.65,3.72,7.81,7.81,0,0,0,.46,2.9A4.84,4.84,0,0,0,312.12,1788.45Z" transform="translate(-107 -1679)"/><polygon class="4bced601-f439-4e6b-9eb5-a382da09785a" points="222 121 227 121 227 103 231 103 231 99 218 99 218 103 222 103 222 121"/><rect class="4bced601-f439-4e6b-9eb5-a382da09785a" x="233" y="99" width="6" height="22"/><polygon class="4bced601-f439-4e6b-9eb5-a382da09785a" points="251 117 247 117 247 99 242 99 242 121 251 121 251 117"/><polygon class="4bced601-f439-4e6b-9eb5-a382da09785a" points="262 117 259 117 259 99 253 99 253 121 262 121 262 117"/><path class="4bced601-f439-4e6b-9eb5-a382da09785a" d="M376.92,1796H379l0.31,4h5.88l-3.29-22h-8.32l-2.94,22h6Zm1-13.3c0.29,3.69.58,7.3,0.88,9.3h-2C377,1790,377.37,1786.94,378,1782.7Z" transform="translate(-107 -1679)"/><path class="4bced601-f439-4e6b-9eb5-a382da09785a" d="M329,1828h5v-7.86l4.64-14.14h-5.29a84.85,84.85,0,0,0-1.6,8.72,78.44,78.44,0,0,0-1.4-8.72h-5.29l3.93,14.14V1828Z" transform="translate(-107 -1679)"/><polygon class="4bced601-f439-4e6b-9eb5-a382da09785a" points="199 155 199 177 208 177 208 173 204 173 204 155 199 155"/><polygon class="4bced601-f439-4e6b-9eb5-a382da09785a" points="210 177 220 177 220 173 216 173 216 168 219 168 219 164 216 164 216 159 220 159 220 155 210 155 210 177"/><path class="4bced601-f439-4e6b-9eb5-a382da09785a" d="M332.48,1834.17a5.31,5.31,0,0,0-2.24,1.76,5.36,5.36,0,0,0-1,2.54,44.23,44.23,0,0,0-.21,4.72V1847a42.83,42.83,0,0,0,.21,4.79,5.4,5.4,0,0,0,3.34,4.27,8.37,8.37,0,0,0,3.2.58A8.15,8.15,0,0,0,339,1856a5.31,5.31,0,0,0,2.24-1.76,5,5,0,0,0,.78-2.54c0.1-.92-0.05-2.5-0.05-4.72v-3.79c0-2.28.15-3.87,0-4.79a5,5,0,0,0-3.15-4.27,8.2,8.2,0,0,0-3.17-.58A8,8,0,0,0,332.48,1834.17Zm4.18,3.56a5.27,5.27,0,0,1,.34,2v10.17a8.16,8.16,0,0,1-.33,2.47,0.81,0.81,0,0,1-.84.52,0.65,0.65,0,0,1-.7-0.45A10.92,10.92,0,0,1,335,1850v-10.34a5.52,5.52,0,0,1,.17-2.06,0.87,0.87,0,0,1,.74-0.35A0.75,0.75,0,0,1,336.66,1837.73Z" transform="translate(-107 -1679)"/><polygon class="4bced601-f439-4e6b-9eb5-a382da09785a" points="246 164.99 243.08 155 238 155 238 177 243 177 243 167.09 246.07 177 251 177 251 155 246 155 246 164.99"/></svg>