<svg id="aed34569-0e07-4955-95a6-9e29dcd715b5" data-name="Capa 2" xmlns="http://www.w3.org/2000/svg" width="1029.97" height="217.61" viewBox="0 0 1029.97 217.61"><defs><style>.\38 c571af4-d92e-4b46-8596-11f2bc2e433b{fill:#5e5e5e;fill-rule:evenodd;}</style></defs><title>footer_castilla</title><path class="8c571af4-d92e-4b46-8596-11f2bc2e433b" d="M884.25,2110.21s97.44,32.4,134,66.58c1.93,0.1,3.85.22,5.78,0.34v-14.72c-24.19-13.26-67.49-33-137.08-52.26-0.07,0-2.67.06-2.67,0.06M864.48,2109s73.71,32.07,99.85,65.58q13.29,0.33,26.89.89h0.7s-45.28-39.69-125.11-66.42C866.74,2109.06,864.48,2109,864.48,2109Zm-13.37-.25s44.54,25.61,73.11,65.26q11.48,0,23.19.2c-2.63-2.51-41-38.72-94.26-65.39A16,16,0,0,0,851.11,2108.76Zm-11.1-.18s27.57,28.52,49,65.72q10-.2,20.26-0.27c-2.85-3.42-38.4-45.73-67.14-65.2C842,2108.78,840,2108.59,840,2108.59Zm-8.16.2s16.19,33.52,25,66.51c5.57-.22,11.19-0.43,16.87-0.59-2.42-4.33-21.23-37.69-40-66.12A10.39,10.39,0,0,0,831.85,2108.79Zm-6.86.3s4.33,62.22,4.19,67.56c4.9-.29,9.87-0.54,14.85-0.78-1.29-5.19-16.56-66.6-17.41-66.78A3.08,3.08,0,0,0,825,2109.09Zm-5.31.06s-3.65,40.59-3.67,68.37c-4.71.32-9.37,0.67-14,1,0.69-3.68,8.59-45.7,16.24-69.39h1.45Zm-8.14.29s-15.45,40.3-21.46,70.07c-5,.43-9.88.88-14.75,1.35l-0.68,0s14.83-33,35.75-71.59Zm-8.65.56S784,2139.91,759,2182.58q-9.18,1-18.13,2.12c4.61-7,32.92-49.18,61-74.71h1.09Zm-12.47.91s-43,40.69-66.36,76c-5.88.81-11.71,1.65-17.45,2.53,2.85-4.26,30-43.67,81.38-78.34Zm-76.88,10.18S604,2163.46,547.45,2217.31l-10.6-7.06s61.3-54.31,163-86Zm-30.31,6.43s-96.1,26-157.51,74.93l-9.67-5s50.81-38.67,142.14-63.51ZM666.36,2195h1.82l-0.55.19c2.05-.38,3.66.17,5.73-0.2,33.81,0.07,185.71,2.75,350.63,43v-31c-49.49-4.4-195.74-16-340.77-13.77l2.5-.43,4.31-1.17c29.28-42.28,85.22-79.46,85.22-79.46l-3.27.54c-53.64,28.92-92.65,69.86-103.64,82.08Zm-36.52,8.73c23.75-.75,169.5,0,394.15,115.13v-50.36c-61.54-17.84-262.74-72.94-383.12-67.16q3.4-.72,6.85-1.42c34.54-41.37,111.21-85.6,111.21-85.6l-2.29,0c-55.43,24.51-109,67.16-137.56,91.83Q624.41,2205,629.85,2203.74Zm-33.3,7.26C611,2211.64,782,2221.4,870.3,2326.18h94s-190-115.76-357.18-117.17l-10.35,1.75c39.7-41.43,140.6-94.5,140.6-94.5l-8.33,2.47c-87.72,36.94-137,76.35-161.77,101q13.73-4,28.36-7.74Zm-13.86,4.45s154.52,16.33,242.83,110.72h-66.2c-7.27-11.44-59-86.37-181.29-109.31Zm-24.49,7.13s3.61-1.41,4.1-1.78c22,6.87,115.26,33.05,157.7,105.37H677.08C671.76,2317.22,628.88,2248,558.21,2222.59Zm-44.17,15s-11.19,53.54-4.88,88.59H486c0.2-7.23,2.32-53.61,23.56-87.22Zm-22.59,8.65s-28.89,41-35.51,79.94H431.41c1.91-6.75,14.77-47.58,54.24-77.73ZM400,2326.18c2.56-5.76,17.63-36.44,60.5-67,0,0-71.65,38.84-88.56,67H400Zm321.44-138.77s143.33-6.8,302.59,2.72V2183c-43.08-1-158.42-2.75-286.29,2.68ZM99.82,2114.6S27.35,2149.86-6,2193.68v10.64c6.8-1.48,15.78-3.35,26.6-5.42C21.57,2196.94,44.24,2150.51,99.82,2114.6Zm21.59-1.66s-39.52,31.65-68,80.18c9.51-1.55,19.75-3.11,30.61-4.61C85,2182.37,90.86,2154.44,121.4,2112.94Zm13.81-.51s-19.4,38.14-25.14,72.75c7.11-.84,14.43-1.63,21.91-2.37C132.63,2178.08,135.22,2156.18,135.22,2112.43Zm15.58,0.12s2.5,35.9,0,68.54q10.89-.92,22.16-1.65C171.79,2174.93,166,2153.45,150.79,2112.55Zm15.26,0.51s22.93,24.13,46,64.52q-10.76.31-21.29,0.84C189.68,2173.43,184.06,2150.62,166.05,2113.06Zm19.74,0s53.08,35.72,73.56,64.29q-14.08-.28-27.95-0.14C228.92,2171.67,215.92,2144.76,185.79,2113.06Zm38.59,1.6s83.72,18.26,144.63,71.63L333.1,2181S307.66,2145.83,224.38,2114.66Zm26.27,1.78s107.4,18.13,174.69,83.18l-0.09,0q-17.45-4.91-35.44-8.6l-0.94-.23S361.53,2148.5,250.66,2116.44Zm54.77,7.79s108.2,16.7,179.42,95.9L472,2215.65q-14.29-5.87-29.18-10.71C440.09,2199.43,416.47,2158.63,305.43,2124.23ZM373,2139.9s101.34,25.09,154.24,92.2l2.2-.8s34.39,47.79,39.52,94.88H541c-0.26-9.18-2.13-55.1-14.94-92.54l-6.93,4.51-14.42-8.49S478.07,2174.76,373,2139.9Zm73.54,24.51s60.25,23.39,90.37,67.34l4.53-2.59c36.61,26.34,61.12,86.35,65.27,97h35.93c-23.33-57.4-88.24-93.55-98.13-98.78l5.34-3.06S516.19,2189.58,446.57,2164.4ZM77.88,2116S29.41,2127.25-6,2146.78v17.45C8.09,2152.18,34,2134.06,77.88,2116ZM496,2226.69a51.79,51.79,0,0,1,8.74,13.47l2.87-1a27.65,27.65,0,0,0-8.54-10.24Zm-6.32-2.67,5.2,19.85,4.24-1.6c-1.55-4.5-3.9-10.52-6.73-14.79Zm-5.32-2.67a192,192,0,0,0-.67,26.9c1.87-.75,3.8-1.5,5.73-2.25a134.2,134.2,0,0,1-4.13-18.1Zm-5-1.52a200.57,200.57,0,0,0-9.2,34q3.17-1.34,6.42-2.68C476.48,2240.36,477.18,2229.31,479.35,2219.82Zm-6.17-2.22a155.9,155.9,0,0,0-24,45.47c3.3-1.52,6.69-3,10.15-4.57A163.75,163.75,0,0,1,469.47,2226Zm-7.4-3s-41.67,28.41-62.32,71.55c7.55-4.21,15.82-8.59,24.8-13.08A197.11,197.11,0,0,1,465.77,2214.63Zm-9.39-2.34S385.26,2235.66,348,2322.12c6.25-4.87,16.3-12.23,30.4-21.13C387.18,2280.75,411,2235.35,456.38,2212.29Zm-13.59-5.55s-94.5,14-135.13,119.44h19.83C331.41,2315.26,362.22,2236.46,442.79,2206.74Zm-18.2-5.12s-116.16,12.19-158.06,124.56h22.88C294.66,2312.25,332.67,2220,424.59,2201.62ZM405,2196s-133.72,7.18-199.89,130.13h36.33C246.22,2312.22,282.19,2220,405,2196Zm-13.25-3.14s-162.69-7-269.34,133.27h48c6.89-14.74,60.38-117.27,222.73-133.59Zm-30.45-5.33s-241.54,5.84-354.75,138.6h63.7C83.26,2308.2,166.29,2204.54,361.3,2187.58Zm-25.12-5.41S146.8,2186.1-6,2236.69v37.47c36.9-24.41,147.36-84.86,344.38-91.77C339.4,2182.36,336.18,2182.17,336.18,2182.17Zm-55-3.21s-158.48.5-287.19,30.45v8.44c36.84-10.19,143.73-35.78,298.78-39.59l-13.11-.84s-39.11-42.76-81.08-64.48c0,0,65.4,21.76,119.6,66.95l-25-1.6Zm222.38,51a39.86,39.86,0,0,1,7.27,8l2.17-.79a36.94,36.94,0,0,0-6.38-5Zm402.95-118.43S975.1,2129,1024,2150.17v-10.76c-17.41-5.29-50.87-14.08-114.77-27.68C909.16,2111.72,906.54,2111.53,906.54,2111.53Z" transform="translate(5.97 -2108.56)"/></svg>